<svg width="30.000000000000004" height="30.000000000000004" xmlns="http://www.w3.org/2000/svg">
 <g id="Layer_1">
  <title>Layer 1</title>
  <ellipse stroke-width="0" ry="15" rx="15" id="svg_2" cy="26.20623" cx="58.17121" stroke="#000" fill="#ffffff"/>
  <path id="svg_7" d="m16.98781,11.81226c-13.09199,0 -23.6965,0 -23.6965,0c0,0 10.60451,0 23.6965,0c13.09199,0 23.6965,0 23.6965,0c0,0 -10.60451,0 -23.6965,0z" transform="rotate(-270 16.9878 11.8123)" opacity="undefined" stroke-width="0" stroke="#000" fill="#000000"/>
  <path transform="rotate(-90 22.54 15)" id="svg_8" d="m7.54001,22.49998c0,-8.28729 6.71271,-15 15,-15c8.28729,0 15,6.71271 15,15l-30,0z" opacity="undefined" stroke-width="0" stroke="#000" fill="#000000"/>
  <path transform="rotate(-270 7.4734 15)" id="svg_10" d="m-7.5266,22.49998c0,-8.28729 6.71271,-15 15,-15c8.28729,0 15,6.71271 15,15l-30,0z" opacity="undefined" stroke-width="0" stroke="#000" fill="#000000"/>
 </g>

</svg>