<svg width="30" height="30" xmlns="http://www.w3.org/2000/svg">
 <g id="Layer_1">
  <title>Layer 1</title>
  <ellipse stroke-width="0" ry="15" rx="15" id="svg_2" cy="26.20623" cx="58.17121" stroke="#000" fill="#ffffff"/>
  <g transform="rotate(-90 17.0455 14.2045)" id="svg_13">
   <rect transform="rotate(-180 32.6486 14.5936)" id="svg_3" height="29.2607" width="20.70039" y="-0.03672" x="22.29837" stroke-width="0" stroke="#000" fill="#000000"/>
   <rect transform="rotate(-180 15.8781 11.2473)" id="svg_6" height="39.84436" width="49.72763" y="-8.67485" x="-8.98568" stroke-width="0" stroke="#000" fill="#000000"/>
   <ellipse transform="rotate(-180 19.3801 14.2045)" rx="23.6965" id="svg_7" cy="14.20453" cx="19.38008" stroke-width="0" stroke="#000" fill="#000000"/>
   <path id="svg_8" d="m1.25,27.19909c0,-8.28729 6.71271,-15 15,-15c8.28729,0 15,6.71271 15,15l-30,0z" opacity="undefined" stroke-width="0" stroke="#000" fill="#ffffff"/>
   <path transform="rotate(-180 16.25 4.63248)" id="svg_10" d="m1.25,12.13248c0,-8.28729 6.71271,-15 15,-15c8.28729,0 15,6.71271 15,15l-30,0z" opacity="undefined" stroke-width="0" stroke="#000" fill="#ffffff"/>
  </g>
 </g>

</svg>